# xmcd
#
# Track frame offsets: 
#        150
#        32626
#        49196
#        63846
#        73453
#        90888
#        104471
#        120072
#        129779
#        147674
#        161437
#        174722
#        187459
#        198168
#        209763
#        217930
#        233852
#        241956
#        252150
#        260439
#        272905
#        278839
#
# Disc length: 3847 seconds
#
# Revision: 0
# Processed by: cddbd v1.5.2PL0 Copyright (c) Steve Scherf et al.
# Submitted via: ExactAudioCopyFreeDBPlugin 1.0
#
DISCID=4a0f0516
DTITLE=Leadbelly - Masterworks - Vol. 2
DYEAR=1949
DGENRE=Blues
TTITLE0=Goodnight Irene
TTITLE1=Ho - Day - Ain't Going Down To The Well No More
TTITLE2=Rock Island Line
TTITLE3=Go Down Old Hannah
TTITLE4=Shine On Me
TTITLE5=What Can I Do To Change Your Mind
TTITLE6=Skip To My Lou
TTITLE7=Mary and Martha
TTITLE8=C'est Bon, Les Oeufs (Scrambled Egg Song)
TTITLE9=Whoa Back Buck
TTITLE10=John Henry
TTITLE11=Backwater Blues
TTITLE12=Ella Louise
TTITLE13=I Don't Want No More Of Army Life
TTITLE14=Relax Your Mind
TTITLE15=Goodnight Irene (Version 2)
TTITLE16=Old Ship Of Zion
TTITLE17=I Will Be So Glad When I Get Home
TTITLE18=Old Black Crow
TTITLE19=Jean Harlow
TTITLE20=Borrow Love Blues
TTITLE21=Good Morning Blues
EXTD=
EXTT0=
EXTT1=
EXTT2=
EXTT3=
EXTT4=
EXTT5=
EXTT6=
EXTT7=
EXTT8=
EXTT9=
EXTT10=
EXTT11=
EXTT12=
EXTT13=
EXTT14=
EXTT15=
EXTT16=
EXTT17=
EXTT18=
EXTT19=
EXTT20=
EXTT21=
PLAYORDER=
